<?xml version="1.0" encoding="utf-8"?>
<!-- Generator: Adobe Illustrator 14.0.0, SVG Export Plug-In . SVG Version: 6.00 Build 43363)  -->
<!DOCTYPE svg PUBLIC "-//W3C//DTD SVG 1.1//EN" "http://www.w3.org/Graphics/SVG/1.1/DTD/svg11.dtd">
<svg version="1.1" id="Layer_1" xmlns="http://www.w3.org/2000/svg" xmlns:xlink="http://www.w3.org/1999/xlink" x="0px" y="0px"
	 width="140px" height="140px" viewBox="0 0 140 140" enable-background="new 0 0 140 140" xml:space="preserve">
<path fill="#EC1C27" d="M59.014,3.024c-0.079,0-0.161,0.006-0.24,0.021c-0.46,0.078-0.915,0.158-1.369,0.246
	c-0.002,0-0.005,0-0.005,0c-0.006,0.002-0.014,0.002-0.02,0.005h-0.005C57.368,3.3,57.36,3.3,57.357,3.3
	c-0.003,0.003-0.005,0.003-0.008,0.003c-0.006,0-0.011,0.002-0.017,0.002c-0.003,0-0.005,0-0.011,0.003
	c-0.008,0-0.014,0.003-0.022,0.003c-0.003,0-0.006,0.003-0.009,0.003c-0.008,0-0.008,0-0.014,0.003c-0.003,0-0.009,0-0.012,0
	c-0.005,0.002-0.008,0.002-0.011,0.002c-0.005,0.003-0.008,0.003-0.014,0.003c-0.002,0-0.005,0.003-0.011,0.003
	c-0.003,0-0.008,0.003-0.011,0.003s-0.008,0-0.008,0c-0.009,0.004-0.014,0.004-0.02,0.004l-0.002,0.003
	c-0.023,0.003-0.042,0.008-0.063,0.011c-0.005,0-0.014,0.003-0.02,0.003c-0.003,0-0.003,0-0.003,0.003l-0.022,0.003h-0.003
	c-0.146,0.028-0.293,0.058-0.438,0.086l-0.003,0.003c-0.045,0.01-0.087,0.018-0.129,0.027c-0.009,0-0.014,0.002-0.025,0.002
	c-0.023,0.006-0.042,0.009-0.063,0.014h-0.002c-0.006,0-0.009,0.003-0.014,0.003c-0.003,0-0.009,0.003-0.009,0.003
	c-0.005,0-0.008,0-0.014,0.003c-0.003,0-0.009,0-0.012,0.002c-0.002,0-0.011,0-0.014,0c-0.003,0.003-0.012,0.003-0.014,0.006
	c-0.003,0-0.006,0-0.009,0c-0.008,0.003-0.011,0.003-0.02,0.005c-0.003,0-0.003,0-0.003,0c-0.13,0.027-0.254,0.052-0.381,0.082
	c-0.785,0.168-1.284,0.943-1.115,1.727c0.144,0.683,0.75,1.151,1.419,1.151c0.102,0,0.206-0.008,0.308-0.032
	c0.897-0.19,1.806-0.367,2.718-0.521c0.793-0.136,1.326-0.886,1.191-1.678C60.326,3.528,59.71,3.024,59.014,3.024 M48.075,5.856
	c-0.161,0-0.325,0.027-0.483,0.082c-0.014,0.006-0.028,0.011-0.042,0.014c-0.002,0-0.002,0.003-0.005,0.003
	c-0.011,0.002-0.022,0.008-0.037,0.011c0,0.003-0.006,0.003-0.006,0.003c-0.014,0.005-0.025,0.01-0.037,0.015
	c-0.003,0-0.003,0-0.005,0c-0.014,0.006-0.023,0.009-0.034,0.011c-0.003,0.003-0.005,0.003-0.011,0.006
	c-0.008,0.003-0.02,0.006-0.031,0.011c-0.002,0-0.008,0.003-0.011,0.003c-0.011,0.005-0.022,0.008-0.031,0.011
	C47.335,6.03,47.33,6.03,47.324,6.033c-0.008,0.002-0.014,0.005-0.022,0.008c-0.008,0.004-0.011,0.004-0.02,0.007
	c-0.008,0.003-0.014,0.006-0.022,0.009c-0.005,0.002-0.008,0.002-0.017,0.005c-0.008,0.003-0.017,0.006-0.025,0.009
	c-0.005,0.002-0.014,0.005-0.02,0.008c-0.008,0-0.014,0.003-0.02,0.005c-0.009,0.003-0.017,0.006-0.025,0.009
	c-0.006,0.003-0.012,0.007-0.017,0.007c-0.008,0.006-0.017,0.009-0.028,0.011c-0.006,0.003-0.008,0.003-0.014,0.006
	c-0.008,0.003-0.02,0.006-0.025,0.008c-0.008,0.003-0.014,0.006-0.022,0.009c-0.006,0-0.014,0.002-0.02,0.005
	c-0.005,0.003-0.008,0.003-0.014,0.006c-0.009,0.003-0.02,0.008-0.031,0.011l-0.011,0.007c-0.014,0.003-0.025,0.009-0.037,0.011
	c-0.003,0-0.009,0.003-0.011,0.003c-0.009,0.003-0.014,0.006-0.02,0.009c-0.005,0.002-0.011,0.002-0.014,0.005
	c-0.011,0.003-0.022,0.006-0.031,0.011c-0.006,0-0.011,0.003-0.017,0.003c-0.008,0.006-0.02,0.008-0.028,0.011
	c-0.005,0.004-0.011,0.007-0.017,0.007c-0.008,0.005-0.017,0.008-0.025,0.011c-0.005,0.003-0.011,0.003-0.017,0.005
	c-0.009,0.003-0.014,0.003-0.02,0.009c-0.008,0-0.014,0.002-0.02,0.005c-0.011,0.003-0.017,0.006-0.028,0.009
	c-0.005,0.002-0.008,0.005-0.014,0.005c-0.011,0.003-0.02,0.008-0.028,0.011l-0.017,0.007c-0.006,0.002-0.011,0.005-0.017,0.005
	c-0.011,0.003-0.02,0.009-0.028,0.011c-0.005,0-0.014,0.003-0.02,0.006c-0.006,0.003-0.011,0.005-0.017,0.005
	c-0.008,0.006-0.017,0.009-0.025,0.012c-0.005,0.002-0.011,0.002-0.017,0.005c-0.011,0.003-0.02,0.007-0.028,0.01l-0.02,0.009
	c-0.005,0.002-0.011,0.002-0.017,0.005c-0.008,0.003-0.017,0.009-0.028,0.011c-0.006,0.003-0.011,0.003-0.017,0.006
	s-0.011,0.005-0.017,0.008c-0.011,0.003-0.02,0.006-0.028,0.009c-0.006,0-0.012,0.002-0.017,0.005
	c-0.009,0.003-0.014,0.006-0.02,0.006c-0.008,0.007-0.017,0.01-0.025,0.013c-0.002,0-0.011,0.005-0.017,0.005
	c-0.009,0.003-0.017,0.006-0.028,0.011c-0.006,0-0.011,0.003-0.017,0.006c-0.008,0.003-0.014,0.006-0.02,0.008
	c-0.009,0.003-0.014,0.006-0.022,0.009c-0.009,0-0.014,0.002-0.02,0.007c-0.006,0.003-0.011,0.006-0.017,0.006
	c-0.008,0.005-0.02,0.008-0.031,0.011c-0.003,0.003-0.011,0.005-0.017,0.005c-0.005,0.003-0.014,0.006-0.022,0.009
	c-0.006,0.002-0.011,0.005-0.02,0.008c-0.005,0.003-0.014,0.006-0.02,0.008c-0.006,0.003-0.014,0.006-0.02,0.006
	C46,6.519,45.995,6.521,45.986,6.525c-0.005,0.003-0.011,0.006-0.017,0.008c-0.009,0.003-0.017,0.006-0.025,0.009
	c-0.006,0.003-0.011,0.005-0.017,0.008c-0.005,0-0.011,0.003-0.02,0.006c-0.009,0.003-0.017,0.005-0.028,0.011
	c-0.006,0-0.011,0.003-0.014,0.005c-0.011,0.003-0.02,0.006-0.028,0.01c-0.005,0.002-0.011,0.005-0.017,0.008
	c-0.005,0-0.014,0.006-0.02,0.006C45.797,6.6,45.792,6.6,45.789,6.603c-0.008,0.003-0.022,0.008-0.037,0.011
	c-0.003,0.003-0.006,0.003-0.009,0.006c-0.014,0.003-0.025,0.008-0.037,0.014c-0.002,0-0.005,0-0.008,0.002
	c-0.014,0.006-0.031,0.013-0.045,0.019l0,0c-0.005,0.003-0.017,0.006-0.025,0.008c0,0,0,0-0.002,0
	c-0.014,0.009-0.028,0.011-0.045,0.02l0,0c-0.234,0.09-0.465,0.182-0.7,0.275c-0.742,0.304-1.104,1.147-0.802,1.893
	c0.223,0.57,0.773,0.913,1.352,0.913c0.178,0,0.361-0.031,0.539-0.103c0.852-0.341,1.716-0.667,2.591-0.975
	c0.756-0.266,1.154-1.098,0.889-1.857C49.238,6.23,48.676,5.856,48.075,5.856 M37.774,10.502c-0.237,0-0.479,0.058-0.703,0.182
	c-0.333,0.188-0.669,0.378-0.999,0.568c-0.003,0.003-0.005,0.003-0.008,0.006c-0.011,0.005-0.02,0.011-0.031,0.017
	c-0.005,0.004-0.008,0.007-0.014,0.01c-0.011,0.002-0.02,0.008-0.028,0.014c-0.006,0.002-0.009,0.005-0.014,0.008
	c-0.006,0.003-0.011,0.006-0.017,0.008c-0.008,0.006-0.017,0.011-0.025,0.017c-0.006,0.003-0.008,0.003-0.014,0.006
	c-0.005,0.007-0.014,0.013-0.022,0.015c-0.008,0.003-0.011,0.006-0.017,0.009c-0.008,0.005-0.017,0.008-0.022,0.014
	c-0.006,0.002-0.008,0.002-0.011,0.005c-0.009,0.006-0.02,0.011-0.028,0.019c-0.006,0.002-0.008,0.005-0.011,0.005
	c-0.011,0.006-0.02,0.014-0.031,0.02l-0.005,0.002c-0.014,0.009-0.025,0.014-0.037,0.02c-0.003,0.003,0,0-0.003,0.003
	c-0.011,0.005-0.022,0.013-0.034,0.021h-0.003c-0.011,0.008-0.025,0.014-0.037,0.022c0,0,0,0-0.003,0
	c-0.361,0.215-0.723,0.431-1.081,0.653c-0.686,0.419-0.9,1.318-0.477,2.002c0.274,0.449,0.751,0.694,1.242,0.694
	c0.26,0,0.522-0.069,0.759-0.217c0.788-0.483,1.581-0.948,2.388-1.398c0.703-0.391,0.954-1.277,0.564-1.98
	C38.779,10.77,38.285,10.502,37.774,10.502 M28.405,16.822c-0.316,0-0.638,0.103-0.906,0.317c-0.203,0.165-0.409,0.329-0.609,0.497
	c-0.003,0.003-0.006,0.006-0.008,0.008c-0.009,0.006-0.017,0.011-0.028,0.021c-0.006,0.003-0.009,0.008-0.014,0.011
	c-0.006,0.005-0.011,0.011-0.02,0.014c-0.005,0.005-0.011,0.011-0.017,0.017c-0.006,0.003-0.009,0.006-0.011,0.009
	c-0.009,0.01-0.017,0.016-0.025,0.021c-0.003,0.003-0.006,0.006-0.009,0.008c-0.008,0.009-0.022,0.014-0.031,0.023
	c-0.003,0.002-0.003,0.002-0.006,0.005c-0.011,0.01-0.02,0.019-0.028,0.024l-0.002,0.003c-0.009,0.008-0.02,0.017-0.028,0.025
	c-0.003,0-0.006,0.003-0.006,0.003c-0.011,0.008-0.02,0.019-0.031,0.027l-0.003,0.003c-0.014,0.008-0.025,0.017-0.034,0.025
	l-0.002,0.002c-0.438,0.367-0.872,0.738-1.304,1.116c-0.604,0.529-0.663,1.448-0.135,2.055c0.291,0.326,0.691,0.494,1.098,0.494
	c0.342,0,0.683-0.118,0.959-0.361c0.694-0.607,1.4-1.2,2.12-1.78c0.626-0.503,0.725-1.419,0.22-2.046
	C29.254,17.007,28.833,16.822,28.405,16.822 M20.231,24.624c-0.403,0-0.801,0.165-1.092,0.488c-0.057,0.069-0.119,0.137-0.175,0.203
	l-0.002,0.003c-0.009,0.011-0.02,0.02-0.028,0.031c0,0.003,0,0.003-0.003,0.003c-0.008,0.011-0.02,0.021-0.028,0.032
	c-0.003,0-0.003,0.003-0.003,0.003c-0.008,0.008-0.017,0.02-0.025,0.028c0,0-0.002,0.003-0.002,0.005
	c-0.009,0.01-0.017,0.019-0.025,0.027c0,0.003-0.006,0.009-0.006,0.009c-0.008,0.008-0.017,0.017-0.022,0.025
	c-0.003,0.004-0.006,0.007-0.009,0.01c-0.008,0.008-0.014,0.017-0.025,0.025c-0.002,0.006-0.005,0.006-0.008,0.011
	c-0.005,0.006-0.011,0.011-0.017,0.02c-0.002,0.004-0.005,0.007-0.008,0.013c-0.008,0.005-0.014,0.014-0.02,0.02
	c-0.003,0.006-0.006,0.008-0.012,0.014c-0.005,0.006-0.011,0.016-0.017,0.024c-0.006,0.003-0.009,0.008-0.014,0.011l-0.014,0.017
	c-0.008,0.008-0.011,0.011-0.017,0.02c-0.005,0.004-0.008,0.01-0.014,0.016c-0.005,0.006-0.011,0.014-0.017,0.02
	c-0.003,0.005-0.009,0.008-0.011,0.014c-0.006,0.006-0.011,0.013-0.017,0.019s-0.008,0.011-0.014,0.017
	c-0.005,0.008-0.008,0.011-0.014,0.017c-0.003,0.003-0.005,0.006-0.005,0.009c-0.009,0.008-0.023,0.021-0.028,0.029
	c-0.003,0.003-0.006,0.006-0.006,0.009c-0.008,0.008-0.017,0.017-0.025,0.028c-0.003,0.004-0.003,0.004-0.005,0.007
	c-0.011,0.014-0.02,0.022-0.031,0.034c0,0.003,0,0.003,0,0.003c-0.017,0.017-0.031,0.038-0.051,0.058l0,0
	c-0.011,0.011-0.02,0.024-0.031,0.038c-0.002,0-0.002,0-0.002,0.002c-0.378,0.439-0.751,0.886-1.115,1.338
	c-0.502,0.624-0.409,1.538,0.214,2.043c0.271,0.22,0.595,0.326,0.917,0.326c0.423,0,0.844-0.185,1.132-0.538
	c0.582-0.717,1.177-1.418,1.792-2.109c0.531-0.604,0.474-1.522-0.127-2.058C20.92,24.742,20.573,24.624,20.231,24.624
	 M13.481,33.685c-0.485,0-0.959,0.243-1.236,0.681c-0.085,0.133-0.167,0.272-0.249,0.405c-0.003,0.003-0.003,0.005-0.005,0.008
	c-0.006,0.011-0.012,0.02-0.017,0.031c-0.003,0.003-0.006,0.005-0.008,0.013c-0.003,0.005-0.009,0.011-0.012,0.017
	c-0.005,0.009-0.008,0.017-0.014,0.025c-0.003,0.003-0.006,0.009-0.009,0.016c-0.008,0.009-0.014,0.017-0.02,0.025
	c-0.003,0.003-0.003,0.006-0.006,0.011c-0.005,0.009-0.011,0.017-0.017,0.03c-0.002,0.003,0,0-0.002,0.003
	c-0.006,0.011-0.014,0.022-0.02,0.034c0,0.003-0.003,0.003-0.003,0.006c-0.008,0.013-0.014,0.024-0.022,0.035v0.003
	c-0.367,0.604-0.722,1.213-1.072,1.829c-0.392,0.703-0.147,1.59,0.553,1.985c0.226,0.127,0.471,0.188,0.714,0.188
	c0.511,0,1.005-0.265,1.27-0.739c0.454-0.806,0.926-1.597,1.411-2.38c0.423-0.683,0.211-1.582-0.469-2.006
	C14.009,33.756,13.744,33.685,13.481,33.685 M8.353,43.752c-0.576,0-1.12,0.344-1.349,0.907c-0.071,0.168-0.138,0.333-0.203,0.5
	c0,0.003,0,0.003,0,0.006c-0.006,0.013-0.012,0.024-0.017,0.038c0,0,0,0.002,0,0.005c-0.006,0.011-0.011,0.022-0.014,0.035
	c-0.003,0.003-0.003,0.006-0.003,0.009c-0.005,0.008-0.008,0.02-0.011,0.028c-0.003,0.005-0.003,0.005-0.008,0.011
	c-0.003,0.01-0.009,0.021-0.011,0.032c-0.003,0.003-0.006,0.009-0.006,0.011c-0.003,0.011-0.008,0.021-0.011,0.033
	c-0.003,0.005-0.003,0.008-0.006,0.014c-0.002,0.005-0.005,0.014-0.008,0.02l-0.008,0.027c-0.003,0.006-0.006,0.011-0.009,0.014
	c-0.002,0.011-0.008,0.022-0.011,0.035c-0.002,0.003-0.002,0.006-0.005,0.011c-0.003,0.006-0.003,0.011-0.006,0.02
	c-0.003,0.003-0.003,0.005-0.005,0.011c-0.003,0.011-0.009,0.024-0.014,0.035c0,0.003-0.003,0.006-0.003,0.008
	c-0.006,0.012-0.014,0.028-0.017,0.041c-0.003,0.003-0.003,0.003-0.003,0.006c-0.014,0.04-0.031,0.078-0.045,0.119l0,0
	c-0.059,0.155-0.119,0.309-0.175,0.461v0.002c-0.02,0.041-0.034,0.079-0.048,0.119c0,0.003,0,0.003,0,0.003
	c-0.005,0.016-0.011,0.032-0.017,0.043c0,0.003-0.003,0.006-0.003,0.009c-0.006,0.011-0.011,0.027-0.014,0.038
	c0,0.003-0.003,0.005-0.003,0.008c-0.003,0.009-0.005,0.014-0.008,0.024l-0.003,0.011c-0.005,0.009-0.008,0.02-0.014,0.031
	c0,0.006-0.003,0.011-0.005,0.014c-0.003,0.01-0.006,0.021-0.009,0.03l-0.011,0.017c0,0.006-0.003,0.011-0.005,0.021
	c-0.003,0.008-0.006,0.017-0.011,0.025c0,0.002-0.003,0.011-0.006,0.017c-0.003,0.009-0.006,0.019-0.008,0.03
	c-0.003,0.003-0.006,0.008-0.006,0.011c-0.003,0.008-0.005,0.02-0.011,0.028c0,0.003-0.003,0.007-0.003,0.013
	c-0.003,0.008-0.008,0.02-0.011,0.031c0,0-0.003,0.006-0.003,0.009c-0.005,0.011-0.008,0.024-0.014,0.035
	c0,0.003-0.002,0.006-0.002,0.008c-0.003,0.012-0.009,0.025-0.014,0.038c-0.068,0.185-0.133,0.37-0.201,0.552
	c-0.271,0.759,0.125,1.592,0.881,1.864c0.164,0.058,0.327,0.083,0.491,0.083c0.596,0,1.157-0.37,1.372-0.965
	c0.311-0.869,0.641-1.731,0.985-2.584c0.305-0.745-0.053-1.594-0.801-1.898C8.72,43.786,8.534,43.752,8.353,43.752 M5.003,54.543
	c-0.669,0-1.27,0.463-1.419,1.139c-0.209,0.942-0.393,1.892-0.559,2.846c-0.138,0.792,0.393,1.543,1.183,1.682
	c0.084,0.014,0.169,0.021,0.251,0.021c0.697,0,1.31-0.498,1.434-1.205c0.161-0.915,0.338-1.819,0.536-2.713
	c0.169-0.788-0.328-1.563-1.112-1.737C5.212,54.554,5.108,54.543,5.003,54.543 M3.533,65.747c-0.776,0-1.42,0.607-1.454,1.389
	c-0.003,0.017-0.003,0.031-0.003,0.045c0,0.005,0,0.014,0,0.022c0,0,0-0.003,0,0c-0.002,0.028-0.002,0.056-0.005,0.084
	c0,0,0,0.006,0,0.008c0,0.003,0,0.009,0,0.012c0,0.005,0,0.008,0,0.014c0,0.003,0,0.009,0,0.012c0,0.005-0.003,0.011-0.003,0.014
	v0.009c0,0.014,0,0.02,0,0.028c0,0.002,0,0.002,0,0.005c0,0.006,0,0.014-0.003,0.02c0,0.002,0,0.002,0,0.005c0,0.009,0,0.014,0,0.02
	c0,0.002,0,0.005,0,0.005c0,0.009,0,0.014,0,0.022v0.003c-0.003,0.028-0.003,0.054-0.003,0.082c0,0,0,0-0.002,0.003
	c0,0.008,0,0.014,0,0.022v0.003c0,0.008,0,0.017,0,0.028c-0.003,0.025-0.003,0.051-0.003,0.079v0.003
	c0,0.008-0.006,0.014-0.006,0.022v0.003c0,0.031,0,0.057-0.003,0.082l0,0c0,0.011,0,0.017,0,0.025c0,0.003,0,0.003,0,0.003
	c0,0.008,0,0.017,0,0.028l0,0c-0.002,0.02-0.002,0.037-0.002,0.054c0,0.008,0,0.017,0,0.025c0,0,0,0.003-0.003,0.006
	c0,0.005,0,0.011,0,0.02c0,0.003,0,0.003,0,0.006c0,0.008,0,0.017,0,0.022c0,0.003,0,0.003,0,0.006c0,0.008,0,0.017,0,0.025v0.002
	C2.04,68.024,2.04,68.027,2.04,68.039c0,0.002,0,0.005,0,0.008s0,0.011,0,0.014c0,0.005,0,0.008,0,0.011c0,0.005,0,0.011,0,0.017
	c0,0.002,0,0.008,0,0.011c0,0.002-0.003,0.005-0.003,0.008c0,0.028,0,0.054,0,0.082v0.002c-0.002,0.006-0.002,0.014-0.002,0.023
	c0,0,0,0,0,0.002c-0.017,0.599-0.028,1.203-0.031,1.807C2,70.827,2.65,71.484,3.454,71.487c0.003,0,0.003,0,0.005,0
	c0.805,0,1.454-0.649,1.457-1.448c0.005-0.928,0.031-1.851,0.073-2.769c0.037-0.804-0.584-1.487-1.391-1.524
	C3.578,65.747,3.556,65.747,3.533,65.747 M3.954,77.041c-0.06,0-0.119,0.006-0.178,0.012c-0.799,0.099-1.369,0.823-1.27,1.619
	c0.073,0.593,0.149,1.183,0.237,1.77c0,0.003,0,0.003,0,0.006c0.003,0.006,0.003,0.012,0.003,0.017
	c0.003,0.003,0.003,0.003,0.003,0.006c0,0.006,0,0.012,0.003,0.02v0.003c0.002,0.021,0.005,0.04,0.008,0.06c0,0,0,0.003,0,0.006
	c0,0.006,0.003,0.008,0.003,0.014c0,0.003,0,0.009,0,0.009c0.003,0.006,0.003,0.011,0.003,0.014c0,0.006,0.002,0.009,0.002,0.015
	s0,0.008,0,0.011c0.003,0.006,0.003,0.012,0.003,0.015s0.003,0.008,0.003,0.011c0,0.009,0.005,0.015,0.005,0.022v0.003
	c0.003,0.009,0.003,0.015,0.003,0.022c0,0.003,0.003,0.006,0.003,0.009s0,0.012,0.003,0.015c0,0.002,0,0.005,0,0.011
	s0.003,0.012,0.003,0.018c0,0.002,0,0.005,0,0.008c0.002,0.006,0.002,0.015,0.002,0.02l0.003,0.003
	c0.003,0.025,0.006,0.051,0.011,0.079v0.003c0,0.009,0.003,0.015,0.003,0.022v0.003c0.003,0.009,0.003,0.017,0.006,0.025
	c0.031,0.209,0.065,0.424,0.102,0.63c0.116,0.714,0.733,1.216,1.434,1.216c0.076,0,0.158-0.006,0.24-0.017
	c0.79-0.133,1.329-0.881,1.199-1.677c-0.152-0.903-0.282-1.817-0.395-2.734C5.308,77.583,4.679,77.041,3.954,77.041 M6.262,88.101
	c-0.139,0-0.28,0.021-0.418,0.063c-0.768,0.229-1.208,1.038-0.979,1.807c0.028,0.093,0.053,0.186,0.084,0.279
	c0.003,0.005,0.003,0.011,0.006,0.017c0.002,0.009,0.005,0.017,0.008,0.025l0.006,0.022c0,0.003,0.002,0.009,0.002,0.015
	c0.006,0.011,0.009,0.02,0.011,0.033c0,0.003,0.003,0.009,0.003,0.009c0.003,0.014,0.009,0.025,0.011,0.036c0,0.003,0,0.003,0,0.006
	c0.209,0.678,0.429,1.347,0.652,2.016l0.003,0.002c0.003,0.015,0.009,0.025,0.017,0.04v0.003l0.011,0.034
	c0,0.002,0.003,0.005,0.003,0.008c0.003,0.015,0.008,0.025,0.011,0.034c0,0.006,0.003,0.014,0.005,0.017
	c0,0.006,0.003,0.012,0.006,0.018c0.003,0.011,0.006,0.02,0.011,0.03c0,0.003,0,0.006,0.003,0.009
	c0.011,0.037,0.022,0.073,0.034,0.107c0.212,0.601,0.776,0.977,1.377,0.977c0.158,0,0.319-0.025,0.477-0.079
	c0.759-0.266,1.163-1.093,0.897-1.854c-0.299-0.869-0.584-1.747-0.85-2.633C7.467,88.508,6.889,88.101,6.262,88.101 M10.414,98.607
	c-0.217,0-0.44,0.049-0.646,0.152c-0.72,0.358-1.016,1.236-0.658,1.953c0.432,0.866,0.878,1.719,1.341,2.56
	c0.265,0.483,0.765,0.754,1.278,0.754c0.237,0,0.48-0.057,0.703-0.181c0.706-0.39,0.959-1.275,0.57-1.979
	c-0.443-0.807-0.872-1.622-1.281-2.449C11.466,98.904,10.947,98.607,10.414,98.607 M16.284,108.263
	c-0.299,0-0.599,0.093-0.855,0.282c-0.652,0.471-0.793,1.386-0.319,2.031c0.423,0.585,0.861,1.163,1.307,1.733
	c0.025,0.033,0.054,0.07,0.082,0.107c0.011,0.011,0.02,0.022,0.028,0.03c0,0.003,0.002,0.006,0.002,0.006
	c0.009,0.012,0.017,0.02,0.023,0.031c0.002,0,0.002,0.003,0.005,0.006c0.009,0.008,0.017,0.02,0.022,0.031
	c0.003,0.002,0.003,0.002,0.006,0.005c0.006,0.009,0.011,0.018,0.02,0.025c0.003,0.003,0.003,0.006,0.006,0.009
	c0.006,0.009,0.017,0.017,0.022,0.025c0.006,0.006,0.006,0.009,0.011,0.012c0.006,0.008,0.011,0.017,0.017,0.025
	c0.003,0.002,0.008,0.008,0.011,0.017c0.003,0.003,0.009,0.009,0.011,0.014c0.009,0.009,0.011,0.015,0.02,0.022
	c0.003,0.003,0.005,0.006,0.008,0.012c0.006,0.009,0.017,0.02,0.022,0.031c0.003,0,0.003,0.003,0.003,0.003
	c0.045,0.054,0.084,0.104,0.124,0.158c0.291,0.358,0.711,0.544,1.14,0.544c0.319,0,0.638-0.104,0.906-0.318
	c0.632-0.5,0.733-1.414,0.231-2.046c-0.573-0.72-1.135-1.454-1.679-2.199C17.175,108.472,16.732,108.263,16.284,108.263
	 M23.694,116.797c-0.378,0-0.756,0.146-1.042,0.439c-0.562,0.579-0.55,1.499,0.028,2.061c0.356,0.348,0.714,0.688,1.078,1.024v0.003
	c0.011,0.009,0.022,0.02,0.031,0.031h0.002c0.02,0.02,0.042,0.039,0.065,0.06c0.003,0,0,0,0.003,0
	c0.009,0.011,0.02,0.02,0.028,0.027c0.003,0.003,0.003,0.003,0.006,0.006c0.008,0.009,0.017,0.02,0.028,0.028l0.003,0.003
	c0.011,0.012,0.02,0.02,0.031,0.028c0,0,0,0,0.003,0.003c0.008,0.008,0.02,0.017,0.028,0.025c0.003,0,0.003,0.003,0.006,0.003
	c0.008,0.008,0.017,0.017,0.028,0.025c0,0.003,0.002,0.005,0.005,0.005c0.009,0.009,0.017,0.021,0.025,0.028
	c0.003,0.003,0.006,0.003,0.009,0.006c0.008,0.009,0.017,0.017,0.025,0.025c0.005,0.003,0.005,0.003,0.008,0.006
	c0.008,0.006,0.017,0.014,0.025,0.022c0.003,0.003,0.006,0.003,0.008,0.006c0.006,0.008,0.014,0.014,0.023,0.022
	c0.002,0.003,0.005,0.006,0.008,0.009c0.008,0.005,0.017,0.017,0.025,0.025c0.003,0.002,0.005,0.005,0.008,0.008
	c0.009,0.006,0.02,0.015,0.028,0.022c0.003,0.003,0.006,0.006,0.008,0.009c0.006,0.006,0.014,0.012,0.02,0.017
	c0.005,0.006,0.008,0.009,0.014,0.012c0.005,0.006,0.011,0.014,0.02,0.02c0.003,0.003,0.006,0.006,0.009,0.009
	c0.008,0.009,0.017,0.017,0.025,0.025c0.002,0.003,0.005,0.006,0.008,0.009c0.011,0.005,0.02,0.014,0.028,0.022
	c0.002,0.003,0.005,0.003,0.008,0.008c0.008,0.006,0.014,0.012,0.022,0.018c0.003,0.005,0.009,0.008,0.011,0.014
	c0.006,0.006,0.014,0.012,0.02,0.015c0.003,0.002,0.008,0.008,0.011,0.011c0.008,0.012,0.014,0.017,0.025,0.022
	c0.003,0.006,0.006,0.009,0.011,0.012c0.008,0.008,0.014,0.014,0.022,0.02c0.003,0.006,0.009,0.009,0.011,0.012
	c0.006,0.005,0.012,0.011,0.017,0.014c0.006,0.006,0.011,0.012,0.02,0.017c0.002,0.006,0.008,0.009,0.011,0.015
	c0.008,0.006,0.014,0.011,0.02,0.02c0.008,0.006,0.014,0.009,0.017,0.012c0.005,0.005,0.011,0.011,0.014,0.014
	c0.008,0.006,0.014,0.012,0.02,0.02c0.006,0.003,0.011,0.009,0.017,0.012c0.003,0.006,0.008,0.009,0.011,0.011
	c0.008,0.009,0.017,0.015,0.022,0.023c0.003,0.002,0.009,0.005,0.011,0.008c0.009,0.009,0.02,0.015,0.028,0.025
	c0.003,0.003,0.006,0.006,0.008,0.009c0.012,0.011,0.02,0.017,0.034,0.028v0.003c0.008,0.005,0.014,0.011,0.02,0.017l0,0
	c0.009,0.006,0.017,0.014,0.025,0.022c0.28,0.246,0.626,0.367,0.968,0.367c0.4,0,0.798-0.164,1.086-0.485
	c0.536-0.602,0.482-1.519-0.116-2.058c-0.686-0.612-1.363-1.242-2.021-1.888C24.428,116.932,24.062,116.797,23.694,116.797
	 M32.432,123.968c-0.463,0-0.92,0.217-1.199,0.629c-0.457,0.661-0.293,1.563,0.367,2.023c0.13,0.088,0.263,0.178,0.395,0.269
	c0,0,0.003,0.003,0.006,0.003c0.008,0.006,0.02,0.014,0.028,0.02c0.003,0.003,0.011,0.006,0.017,0.009
	c0.003,0.005,0.009,0.008,0.014,0.011l0.025,0.018c0.006,0.002,0.006,0.002,0.012,0.008c0.008,0.009,0.02,0.015,0.028,0.02
	c0,0.003,0.006,0.006,0.006,0.006l0.031,0.02c0.003,0,0.006,0.003,0.006,0.003c0.011,0.009,0.022,0.015,0.031,0.022
	c0.002,0,0.005,0.003,0.005,0.003c0.011,0.009,0.022,0.015,0.034,0.022c0.002,0,0,0,0.002,0c0.449,0.306,0.903,0.599,1.357,0.893
	l0,0c0.014,0.008,0.028,0.017,0.04,0.022c0,0.003,0,0.003,0.003,0.003c0.011,0.008,0.022,0.014,0.034,0.022c0.003,0,0,0,0.003,0
	c0.011,0.008,0.022,0.014,0.031,0.022c0.003,0,0.005,0,0.005,0.003c0.014,0.006,0.023,0.011,0.034,0.02
	c0.002,0,0.005,0.003,0.008,0.006c0.011,0.009,0.02,0.014,0.028,0.02l0.011,0.009c0.008,0.006,0.02,0.011,0.028,0.017
	c0.003,0.003,0.005,0.003,0.011,0.006c0.005,0.006,0.017,0.009,0.022,0.014c0.008,0.006,0.011,0.009,0.02,0.012
	c0.005,0.006,0.011,0.009,0.017,0.011c0.006,0.003,0.011,0.006,0.017,0.012l0.022,0.014c0.008,0.003,0.011,0.006,0.017,0.012
	c0.005,0.006,0.008,0.006,0.014,0.009c0.011,0.005,0.02,0.014,0.031,0.02c0.003,0.003,0.006,0.003,0.009,0.006
	c0.005,0.003,0.011,0.008,0.017,0.011c0.24,0.149,0.508,0.224,0.771,0.224c0.485,0,0.957-0.243,1.236-0.687
	c0.426-0.68,0.22-1.577-0.46-2.006c-0.782-0.491-1.552-0.999-2.309-1.519C33.005,124.047,32.717,123.968,32.432,123.968
	 M42.247,129.563c-0.55,0-1.078,0.313-1.323,0.845c-0.339,0.73-0.02,1.594,0.711,1.933c0.107,0.051,0.217,0.102,0.328,0.149
	c0.011,0.006,0.025,0.012,0.037,0.021c0.002,0.002,0.002,0.002,0.005,0.002c0.011,0.006,0.022,0.012,0.037,0.018
	c0.003,0,0.009,0.003,0.009,0.003c0.011,0.005,0.02,0.008,0.031,0.014c0.006,0.003,0.006,0.003,0.011,0.006
	c0.009,0.003,0.017,0.006,0.023,0.009c0.008,0.005,0.011,0.005,0.02,0.011c0.008,0.003,0.014,0.006,0.025,0.009
	c0.006,0.003,0.008,0.006,0.017,0.008c0.005,0.003,0.008,0.003,0.011,0.006c0.011,0.006,0.022,0.009,0.037,0.015
	c0,0.003,0.003,0.003,0.003,0.003c0.68,0.308,1.366,0.604,2.06,0.889c0.181,0.073,0.364,0.11,0.55,0.11
	c0.573,0,1.115-0.342,1.346-0.903c0.308-0.745-0.048-1.595-0.793-1.902c-0.855-0.353-1.699-0.723-2.534-1.109
	C42.659,129.606,42.45,129.563,42.247,129.563 M52.864,133.416c-0.644,0-1.23,0.432-1.406,1.081
	c-0.208,0.776,0.251,1.575,1.027,1.783c0.333,0.091,0.669,0.176,1.005,0.263c0.014,0.003,0.025,0.006,0.04,0.009
	c0.003,0.003,0.005,0.003,0.005,0.003c0.014,0.003,0.025,0.005,0.037,0.008c0.003,0,0.006,0.003,0.009,0.003
	c0.014,0.003,0.025,0.006,0.037,0.009c0.003,0,0.003,0,0.005,0c0.012,0.003,0.023,0.006,0.034,0.009
	c0.003,0.002,0.011,0.002,0.011,0.002c0.011,0.003,0.022,0.006,0.034,0.009c0.003,0.006,0.011,0.006,0.017,0.009
	c0.008,0,0.017,0.003,0.025,0.006c0.006,0,0.014,0.003,0.02,0.005c0.006,0,0.014,0.003,0.02,0.003
	c0.008,0.003,0.017,0.006,0.025,0.009c0.006,0,0.014,0.003,0.022,0.003c0.009,0.003,0.011,0.003,0.02,0.006
	c0.002,0,0.005,0.003,0.011,0.003c0.011,0.002,0.022,0.005,0.037,0.008l0.008,0.003c0.014,0.003,0.028,0.006,0.042,0.012
	c0,0,0.006,0,0.008,0c0.023,0.005,0.045,0.011,0.071,0.017c0.003,0,0.003,0.003,0.003,0.003c0.31,0.076,0.615,0.146,0.925,0.217
	c0.003,0,0.003,0,0.003,0c0.017,0.006,0.031,0.009,0.048,0.012c0,0,0,0,0.003,0.003c0.028,0.006,0.048,0.009,0.073,0.014
	c0.003,0.003,0.009,0.003,0.012,0.003c0.011,0.003,0.022,0.006,0.034,0.009c0.005,0,0.011,0.003,0.017,0.003
	c0.005,0.003,0.017,0.003,0.022,0.006c0.008,0.002,0.017,0.002,0.025,0.005c0.005,0,0.014,0.003,0.017,0.003
	c0.012,0.003,0.023,0.009,0.031,0.012c0.006,0,0.008,0,0.011,0.003c0.011,0,0.022,0.003,0.034,0.005c0.002,0,0.002,0,0.005,0.003
	c0.107,0.022,0.212,0.034,0.319,0.034c0.666,0,1.267-0.463,1.419-1.141c0.178-0.784-0.319-1.563-1.103-1.738
	c-0.903-0.203-1.798-0.42-2.684-0.66C53.118,133.434,52.991,133.416,52.864,133.416 M63.983,135.417
	c-0.742,0-1.377,0.564-1.448,1.321c-0.076,0.798,0.511,1.507,1.31,1.586c0.229,0.02,0.457,0.039,0.688,0.059
	c0.008,0,0.02,0,0.028,0.003c0.008,0,0.014,0,0.025,0c0,0,0,0,0.003,0c0.008,0.003,0.014,0.003,0.022,0.003c0.005,0,0.008,0,0.011,0
	c0.006,0,0.008,0.003,0.014,0.003c0.003,0,0.008,0,0.014,0c0.003,0,0.003,0,0.008,0c0.008,0.003,0.014,0.003,0.02,0.003h0.002
	c0.44,0.036,0.883,0.067,1.327,0.096c0.003,0,0,0,0.003,0c0.025,0,0.053,0.003,0.082,0.006c0.003,0,0.003,0,0.006,0
	c0.005,0,0.014,0,0.02,0c0.003,0,0.003,0,0.009,0h0.014c0.003,0.003,0.009,0.003,0.012,0.003c0.002,0,0.008,0,0.011,0
	c0.017,0,0.031,0.003,0.051,0.003c0,0,0,0,0.003,0c0.008,0,0.014,0,0.025,0.003c0,0,0,0,0.002,0c0.164,0.008,0.325,0.02,0.491,0.028
	c0.022,0,0.048,0,0.071,0c0.77,0,1.414-0.604,1.453-1.384c0.042-0.804-0.576-1.486-1.38-1.529c-0.926-0.045-1.846-0.112-2.76-0.197
	C64.077,135.42,64.028,135.417,63.983,135.417 M78.106,135.253c-0.056,0-0.112,0.003-0.169,0.009
	c-0.914,0.107-1.834,0.197-2.755,0.266c-0.801,0.059-1.405,0.759-1.343,1.561c0.051,0.765,0.688,1.349,1.45,1.349
	c0.034,0,0.068,0,0.107-0.003c0.525-0.042,1.05-0.087,1.575-0.135c0.005,0,0,0,0.005,0c0.006-0.003,0.012-0.003,0.018-0.003
	s0.006,0,0.006,0c0.005,0,0.011-0.003,0.017-0.003h0.006c0.011,0,0.022-0.003,0.028-0.003c0.005,0,0.005,0,0.011,0l0.012-0.003
	c0.005,0,0.011,0,0.017,0s0.006,0,0.012,0c0.005-0.006,0.005-0.006,0.017-0.006c0,0,0,0,0.006,0c0.005,0,0.011-0.003,0.017-0.003
	s0.006,0,0.006,0c0.378-0.036,0.756-0.076,1.135-0.124c0.795-0.093,1.365-0.815,1.27-1.611
	C79.467,135.801,78.835,135.253,78.106,135.253 M89.175,132.998c-0.135,0-0.271,0.021-0.411,0.06c-0.881,0.257-1.772,0.5-2.67,0.723
	c-0.779,0.194-1.253,0.985-1.062,1.767c0.164,0.66,0.762,1.104,1.411,1.104c0.113,0,0.231-0.012,0.35-0.039
	c0.503-0.128,1.011-0.26,1.513-0.396c0-0.003,0-0.003,0-0.003c0.018-0.003,0.028-0.009,0.046-0.012c0,0,0.005,0,0.005-0.002
	c0.023-0.006,0.051-0.012,0.074-0.018c0-0.003,0.005-0.003,0.005-0.003c0.012-0.003,0.028-0.008,0.04-0.011
	c0.006,0,0.006-0.003,0.011-0.003c0.012-0.003,0.028-0.009,0.046-0.012l0,0c0.011-0.003,0.017-0.005,0.027-0.008c0,0,0,0,0.006,0
	c0.012-0.003,0.028-0.009,0.04-0.012c0-0.003,0.006-0.003,0.011-0.003c0.012-0.003,0.022-0.008,0.04-0.011c0,0,0.006,0,0.006-0.006
	c0.022-0.006,0.051-0.012,0.073-0.02c0,0,0,0,0.005,0c0.018-0.006,0.028-0.009,0.046-0.012c0-0.003,0-0.003,0.005-0.003
	c0.012-0.006,0.028-0.008,0.046-0.014l0,0c0.022-0.006,0.051-0.015,0.073-0.02c0.006,0,0.006,0,0.006,0
	c0.017-0.006,0.028-0.009,0.045-0.015c0,0,0,0,0.006,0c0.045-0.011,0.079-0.022,0.124-0.036l0,0
	c0.169-0.049,0.333-0.097,0.502-0.147c0.768-0.229,1.208-1.035,0.982-1.806C90.389,133.407,89.808,132.998,89.175,132.998
	 M99.702,128.896c-0.215,0-0.435,0.048-0.644,0.149c-0.824,0.406-1.659,0.793-2.506,1.165c-0.74,0.325-1.073,1.183-0.745,1.919
	c0.236,0.548,0.768,0.872,1.332,0.872c0.197,0,0.395-0.039,0.587-0.121c0.107-0.051,0.214-0.099,0.327-0.146
	c0-0.003,0.006-0.003,0.006-0.003c0.011-0.006,0.022-0.012,0.033-0.017c0,0,0.006-0.003,0.012-0.003
	c0.006-0.006,0.017-0.009,0.028-0.015c0.006-0.003,0.012-0.003,0.017-0.006c0.006-0.002,0.012-0.005,0.022-0.011
	c0.006-0.003,0.012-0.006,0.018-0.009s0.011-0.006,0.022-0.008c0.006-0.003,0.011-0.006,0.022-0.012
	c0.006-0.003,0.012-0.003,0.017-0.006c0.006-0.006,0.018-0.006,0.022-0.011c0.006,0,0.006-0.003,0.012-0.003
	c0.012-0.006,0.022-0.015,0.034-0.02c0.005,0,0.005-0.003,0.005-0.003c0.018-0.006,0.028-0.012,0.046-0.021l0,0
	c0.355-0.157,0.705-0.321,1.056-0.488l0,0c0.017-0.008,0.027-0.014,0.051-0.02c0-0.003,0-0.003,0-0.003
	c0.022-0.011,0.045-0.02,0.067-0.03c0-0.003,0.006-0.003,0.006-0.003c0.011-0.006,0.022-0.012,0.033-0.018
	c0.012-0.003,0.012-0.005,0.018-0.005c0.011-0.009,0.017-0.012,0.028-0.018c0.005-0.003,0.011-0.006,0.017-0.008
	c0.006-0.003,0.011-0.006,0.017-0.009l0.022-0.012c0.006-0.003,0.012-0.005,0.018-0.008c0.011-0.003,0.017-0.006,0.028-0.012
	c0.005-0.003,0.011-0.006,0.017-0.006c0.006-0.005,0.012-0.008,0.022-0.011c0.006-0.003,0.006-0.006,0.012-0.009
	c0.011-0.003,0.017-0.009,0.028-0.011c0.005-0.003,0.005-0.003,0.011-0.006c0.012-0.006,0.022-0.012,0.034-0.018
	c0-0.002,0.006-0.005,0.011-0.005c0.012-0.006,0.022-0.012,0.034-0.018c0,0,0,0,0.006-0.003c0.006-0.002,0.017-0.008,0.028-0.014
	c0.005,0,0.005-0.003,0.005-0.003c0.018-0.006,0.028-0.011,0.04-0.017c0,0,0-0.003,0.006-0.003c0.011-0.006,0.022-0.012,0.033-0.018
	l0.006-0.002c0.04-0.018,0.079-0.04,0.119-0.06l0,0c0.011-0.006,0.027-0.012,0.039-0.02l0,0c0.057-0.025,0.107-0.051,0.164-0.076
	c0.722-0.355,1.016-1.23,0.666-1.953C100.758,129.194,100.238,128.896,99.702,128.896 M109.382,123.07
	c-0.294,0-0.593,0.09-0.853,0.276c-0.745,0.542-1.507,1.064-2.274,1.575c-0.672,0.442-0.853,1.346-0.412,2.018
	c0.282,0.423,0.745,0.654,1.22,0.654c0.276,0,0.553-0.079,0.801-0.242c0.802-0.533,1.592-1.078,2.377-1.643
	c0.648-0.475,0.795-1.383,0.327-2.035C110.279,123.282,109.839,123.07,109.382,123.07 M117.95,115.701
	c-0.373,0-0.751,0.145-1.039,0.438c-0.644,0.658-1.304,1.302-1.976,1.934c-0.593,0.548-0.621,1.471-0.073,2.058
	c0.288,0.305,0.678,0.463,1.067,0.463c0.355,0,0.711-0.13,0.993-0.396v-0.003c0.017-0.009,0.022-0.017,0.033-0.028c0,0,0,0,0.006,0
	c0.006-0.011,0.018-0.02,0.028-0.031l0,0c0.022-0.02,0.04-0.042,0.067-0.062c0.012-0.012,0.023-0.02,0.028-0.031h0.006
	c0.012-0.012,0.017-0.02,0.028-0.028v-0.003c0.022-0.02,0.045-0.042,0.067-0.062l0,0c0.012-0.012,0.023-0.021,0.028-0.028
	c0.006-0.003,0.006-0.003,0.006-0.003l0.028-0.028c0.006-0.003,0,0,0.006-0.003c0.017-0.02,0.039-0.042,0.062-0.06
	c0-0.002,0-0.002,0-0.002c0.012-0.012,0.022-0.021,0.034-0.028c0-0.003,0-0.003,0-0.003c0.012-0.012,0.022-0.021,0.028-0.028
	c0.006-0.003,0.006-0.003,0.006-0.003c0.011-0.012,0.017-0.02,0.033-0.031c0-0.003,0-0.003,0-0.003
	c0.012-0.008,0.018-0.017,0.028-0.025c0-0.003,0-0.003,0.006-0.006c0.006-0.008,0.017-0.017,0.022-0.025
	c0.006,0,0.006-0.002,0.006-0.005c0.011-0.009,0.022-0.018,0.028-0.025c0.006-0.003,0.006-0.003,0.006-0.006
	c0.011-0.009,0.022-0.02,0.028-0.028c0.005-0.003,0.005-0.003,0.011-0.006c0.006-0.008,0.012-0.014,0.022-0.022
	c0-0.003,0.006-0.006,0.006-0.009c0.006-0.005,0.017-0.014,0.022-0.022c0.006-0.003,0.006-0.003,0.012-0.005
	c0.005-0.009,0.011-0.018,0.022-0.023c0-0.002,0.006-0.008,0.011-0.011c0.006-0.006,0.018-0.017,0.022-0.025
	c0.006-0.003,0.006-0.006,0.012-0.009c0.006-0.006,0.012-0.011,0.017-0.017c0.006-0.006,0.012-0.009,0.018-0.018
	c0.005-0.002,0.011-0.008,0.017-0.014s0.006-0.006,0.012-0.012c0.005-0.005,0.011-0.014,0.017-0.02
	c0.011-0.006,0.011-0.008,0.017-0.014c0.006-0.009,0.018-0.015,0.022-0.022c0.006-0.003,0.006-0.009,0.012-0.012
	c0.006-0.006,0.012-0.009,0.017-0.014c0.006-0.006,0.012-0.012,0.018-0.021c0.005-0.002,0.011-0.005,0.011-0.011
	c0.012-0.006,0.018-0.012,0.022-0.02c0.006-0.003,0.006-0.009,0.018-0.012c0-0.006,0.005-0.011,0.011-0.017s0.012-0.015,0.022-0.02
	c0.006-0.006,0.006-0.009,0.012-0.015c0.006-0.003,0.006-0.006,0.011-0.009c0.006-0.008,0.018-0.017,0.023-0.025
	c0.005-0.002,0.005-0.005,0.011-0.008c0.006-0.009,0.017-0.018,0.028-0.025c0-0.003,0.006-0.006,0.006-0.006
	c0.028-0.031,0.057-0.06,0.084-0.088l0.006-0.003c0.012-0.011,0.022-0.022,0.034-0.033c0,0,0,0,0.006,0
	c0.282-0.282,0.559-0.562,0.841-0.847c0.559-0.576,0.553-1.496-0.022-2.061C118.689,115.84,118.322,115.701,117.95,115.701
	 M125.163,107.001c-0.457,0-0.914,0.22-1.196,0.624c-0.525,0.756-1.066,1.504-1.626,2.237c-0.491,0.641-0.366,1.553,0.277,2.041
	c0.265,0.2,0.575,0.299,0.88,0.299c0.44,0,0.875-0.2,1.163-0.576c0.581-0.768,1.146-1.546,1.698-2.336
	c0.458-0.664,0.294-1.569-0.36-2.029C125.744,107.083,125.451,107.001,125.163,107.001 M130.808,97.211
	c-0.548,0-1.072,0.311-1.315,0.838c-0.395,0.836-0.801,1.662-1.23,2.48c-0.372,0.715-0.096,1.592,0.621,1.965
	c0.215,0.112,0.44,0.166,0.672,0.166c0.524,0,1.027-0.285,1.287-0.778c0.451-0.855,0.874-1.722,1.286-2.6
	c0.339-0.728,0.023-1.595-0.699-1.931C131.226,97.256,131.017,97.211,130.808,97.211 M134.714,86.608
	c-0.639,0-1.226,0.426-1.4,1.072c-0.248,0.895-0.514,1.777-0.79,2.652c-0.248,0.768,0.175,1.584,0.942,1.829
	c0.146,0.051,0.294,0.073,0.446,0.073c0.615,0,1.186-0.396,1.383-1.013c0.237-0.74,0.463-1.49,0.677-2.244c0-0.003,0-0.003,0-0.006
	c0.006-0.011,0.012-0.025,0.012-0.036c0-0.003,0.006-0.006,0.006-0.009c0-0.011,0.006-0.022,0.006-0.034
	C136,88.892,136,88.886,136,88.88c0-0.009,0.006-0.017,0.006-0.025c0.006-0.006,0.006-0.009,0.006-0.014
	c0-0.012,0.006-0.021,0.006-0.028c0.005-0.009,0.005-0.015,0.005-0.022c0.006-0.006,0.006-0.009,0.006-0.012
	c0.006-0.014,0.006-0.025,0.012-0.039c0,0,0-0.003,0-0.006c0.028-0.097,0.057-0.189,0.079-0.285
	c0.214-0.776-0.243-1.572-1.021-1.784C134.968,86.625,134.838,86.608,134.714,86.608 M136.763,75.5c-0.74,0-1.372,0.562-1.445,1.315
	c-0.091,0.923-0.197,1.837-0.333,2.746c-0.107,0.796,0.446,1.535,1.242,1.645c0.067,0.012,0.141,0.018,0.203,0.018
	c0.711,0,1.337-0.525,1.438-1.25c0.04-0.263,0.074-0.528,0.107-0.791c0-0.002,0-0.005,0-0.005c0.006-0.006,0.006-0.015,0.006-0.021
	c0-0.005,0-0.008,0-0.011c0-0.006,0-0.009,0-0.012c0-0.006,0.006-0.008,0.006-0.014c0-0.003,0-0.006,0-0.006
	c0.073-0.581,0.141-1.16,0.203-1.741c0-0.003,0-0.006,0-0.006c0-0.006,0-0.011,0-0.02c0-0.003,0-0.006,0-0.009
	c0-0.005,0-0.008,0-0.014s0.006-0.012,0.006-0.017c0-0.003,0-0.003,0-0.006c0.005-0.071,0.011-0.139,0.017-0.209
	c0.079-0.799-0.508-1.51-1.304-1.589C136.858,75.503,136.813,75.5,136.763,75.5 M136.926,64.197c-0.033,0-0.067,0-0.102,0.003
	c-0.802,0.057-1.405,0.751-1.349,1.555c0.062,0.917,0.107,1.837,0.13,2.763c0.022,0.793,0.672,1.417,1.456,1.417
	c0.017,0,0.028,0,0.039,0c0.808-0.02,1.439-0.692,1.417-1.49c-0.011-0.474-0.028-0.943-0.051-1.414c0-0.003,0-0.003,0-0.003
	c-0.006-0.008-0.006-0.014-0.006-0.022c0-0.003,0-0.003,0-0.005c0-0.012,0-0.014,0-0.023c0-0.002,0-0.002,0-0.005
	c0-0.009,0-0.014,0-0.022c0-0.003,0-0.006,0-0.009c0-0.008,0-0.011,0-0.017c0-0.006,0-0.009,0-0.014
	c-0.006-0.003-0.006-0.006-0.006-0.011c0-0.003,0-0.009,0-0.014c0-0.003,0-0.009,0-0.009c0-0.008,0-0.014,0-0.02
	c-0.022-0.435-0.045-0.869-0.073-1.301C138.326,64.784,137.688,64.197,136.926,64.197 M135.193,53.032
	c-0.113,0-0.231,0.011-0.345,0.041c-0.778,0.19-1.259,0.979-1.072,1.759c0.22,0.893,0.418,1.795,0.599,2.702
	c0.141,0.693,0.75,1.173,1.428,1.173c0.096,0,0.192-0.011,0.288-0.028c0.784-0.157,1.298-0.926,1.14-1.714
	c-0.175-0.902-0.372-1.801-0.593-2.689c0-0.016-0.005-0.03-0.005-0.044l-0.006-0.003c0-0.014-0.006-0.027-0.006-0.041
	c-0.006-0.014-0.006-0.025-0.011-0.037c0-0.002,0-0.005,0-0.01C136.446,53.476,135.854,53.032,135.193,53.032 M131.592,42.322
	c-0.191,0-0.389,0.041-0.575,0.121c-0.739,0.32-1.078,1.177-0.757,1.917c0.367,0.844,0.717,1.696,1.045,2.561
	c0.226,0.577,0.772,0.933,1.359,0.933c0.176,0,0.351-0.033,0.525-0.099c0.751-0.285,1.123-1.129,0.835-1.881
	c-0.005-0.011-0.011-0.025-0.017-0.041V45.83c-0.006-0.011-0.012-0.022-0.012-0.037c-0.005-0.003-0.005-0.006-0.005-0.006
	c-0.006-0.013-0.012-0.027-0.012-0.038l-0.006-0.006c-0.005-0.011-0.005-0.022-0.011-0.038c0,0,0-0.002-0.006-0.005
	c0-0.008-0.006-0.02-0.012-0.031c0-0.002,0-0.005,0-0.008c-0.005-0.013-0.011-0.024-0.017-0.032c0-0.006,0-0.009,0-0.012
	c-0.006-0.011-0.011-0.024-0.017-0.035c0-0.003,0-0.005,0-0.011c-0.006-0.008-0.012-0.017-0.018-0.025c0-0.003,0-0.013-0.005-0.016
	c0-0.008-0.006-0.017-0.006-0.025c-0.006-0.005-0.006-0.008-0.006-0.014c-0.006-0.008-0.011-0.021-0.011-0.029
	c-0.006-0.006-0.006-0.012-0.006-0.017c-0.006-0.008-0.012-0.017-0.012-0.03c-0.006-0.003-0.006-0.008-0.006-0.014
	c-0.005-0.005-0.005-0.014-0.011-0.022c0-0.005-0.006-0.008-0.006-0.014c-0.006-0.008-0.006-0.021-0.011-0.029
	c0-0.003-0.006-0.009-0.006-0.012c-0.006-0.011-0.006-0.02-0.012-0.032c0-0.003-0.006-0.008-0.006-0.014
	c-0.005-0.008-0.011-0.02-0.017-0.028c0-0.005,0-0.008,0-0.011c-0.006-0.01-0.006-0.018-0.011-0.027
	c0-0.005-0.006-0.008-0.006-0.011c-0.006-0.011-0.006-0.024-0.012-0.032c0-0.006-0.006-0.009-0.006-0.011
	c-0.005-0.012-0.005-0.023-0.011-0.034c0,0-0.006-0.005-0.006-0.01c-0.006-0.011-0.006-0.022-0.011-0.034
	c0-0.003,0-0.006-0.006-0.006c0-0.011-0.006-0.024-0.012-0.032c0-0.006,0-0.006,0-0.009c-0.006-0.011-0.011-0.022-0.017-0.034
	c0-0.007,0-0.003,0-0.01c-0.006-0.011-0.012-0.023-0.017-0.037l-0.006-0.002c-0.012-0.027-0.018-0.052-0.028-0.079v-0.006
	c-0.006-0.011-0.012-0.025-0.018-0.037v-0.003c-0.22-0.543-0.445-1.086-0.683-1.621C132.692,42.652,132.156,42.322,131.592,42.322
	 M126.235,32.375c-0.276,0-0.553,0.078-0.796,0.24c-0.671,0.439-0.863,1.34-0.423,2.014c0.502,0.772,0.993,1.555,1.462,2.347
	c0.276,0.46,0.756,0.714,1.253,0.714c0.254,0,0.514-0.066,0.745-0.205c0.688-0.411,0.92-1.304,0.508-1.994
	c-0.491-0.833-1.005-1.654-1.535-2.459C127.173,32.606,126.71,32.375,126.235,32.375 M119.276,23.474
	c-0.355,0-0.711,0.127-0.993,0.387c-0.587,0.548-0.621,1.469-0.079,2.059c0.626,0.676,1.241,1.366,1.84,2.068
	c0.288,0.339,0.7,0.512,1.112,0.512c0.333,0,0.666-0.113,0.942-0.347c0.615-0.523,0.683-1.439,0.163-2.052
	c0-0.002-0.005-0.008-0.005-0.011l-0.012-0.016c-0.006-0.008-0.012-0.011-0.017-0.017c-0.006-0.006-0.012-0.014-0.018-0.02
	c-0.005-0.005-0.011-0.01-0.011-0.015c-0.006-0.006-0.018-0.014-0.022-0.02c0-0.005-0.006-0.008-0.012-0.014
	c-0.006-0.005-0.006-0.011-0.011-0.017c-0.006-0.007-0.012-0.016-0.018-0.019c-0.006-0.006-0.011-0.011-0.011-0.017
	c-0.006-0.005-0.012-0.011-0.018-0.017c-0.005-0.006-0.011-0.013-0.017-0.019s-0.006-0.008-0.012-0.014
	c-0.005-0.005-0.011-0.014-0.022-0.022c0-0.006-0.005-0.006-0.005-0.011c-0.012-0.01-0.018-0.019-0.023-0.024
	c0-0.003-0.005-0.009-0.011-0.011c-0.006-0.006-0.006-0.014-0.012-0.02c-0.005-0.005-0.011-0.01-0.011-0.016
	c-0.012-0.005-0.018-0.014-0.022-0.02c-0.006-0.006-0.006-0.006-0.012-0.011c-0.006-0.009-0.011-0.014-0.022-0.023
	c0-0.007-0.006-0.01-0.006-0.013c-0.006-0.008-0.017-0.017-0.022-0.025c0-0.002-0.006-0.005-0.006-0.008
	c-0.006-0.008-0.017-0.016-0.022-0.024c0-0.003-0.006-0.006-0.006-0.008c-0.005-0.009-0.017-0.017-0.022-0.023
	c-0.006-0.005-0.006-0.008-0.011-0.011c-0.006-0.008-0.012-0.018-0.022-0.027c0-0.002,0-0.005-0.006-0.008
	c-0.006-0.008-0.018-0.017-0.022-0.025c0-0.003-0.006-0.007-0.006-0.01c-0.012-0.009-0.017-0.017-0.022-0.025
	c0-0.003-0.006-0.006-0.006-0.006c-0.006-0.008-0.017-0.017-0.022-0.025c-0.006-0.003-0.006-0.003-0.006-0.007
	c-0.011-0.011-0.017-0.02-0.028-0.028c0-0.003,0-0.006-0.006-0.008c-0.005-0.009-0.017-0.019-0.022-0.027
	c0-0.003-0.005-0.006-0.005-0.009c-0.012-0.008-0.018-0.017-0.023-0.028c-0.005,0-0.005,0-0.005-0.003l-0.028-0.03v-0.003
	c-0.012-0.011-0.018-0.02-0.028-0.028c0-0.003-0.006-0.006-0.006-0.006l-0.022-0.03c0-0.003-0.006-0.005-0.006-0.008
	c-0.011-0.008-0.017-0.017-0.028-0.028c0,0,0,0,0-0.004c-0.011-0.008-0.022-0.02-0.028-0.028c0-0.003,0,0,0-0.003
	c-0.011-0.008-0.022-0.02-0.028-0.033c0,0-0.005,0-0.005-0.002c-0.006-0.009-0.018-0.02-0.022-0.028
	c-0.006-0.003-0.006-0.003-0.006-0.006c-0.012-0.008-0.018-0.021-0.028-0.032l0,0c-0.017-0.022-0.04-0.044-0.063-0.066
	c-0.005-0.011-0.017-0.022-0.028-0.034l0,0c-0.039-0.047-0.079-0.09-0.118-0.134v-0.003c-0.282-0.312-0.564-0.624-0.853-0.933
	C120.056,23.63,119.666,23.474,119.276,23.474 M110.923,15.862c-0.44,0-0.869,0.196-1.157,0.569
	c-0.491,0.639-0.367,1.552,0.266,2.043c0.733,0.56,1.456,1.139,2.161,1.731c0.271,0.229,0.604,0.337,0.938,0.337
	c0.412,0,0.829-0.176,1.111-0.519c0.52-0.617,0.44-1.533-0.175-2.049c-0.559-0.469-1.129-0.929-1.699-1.379
	c-0.005-0.003-0.005-0.003-0.005-0.005c-0.012-0.006-0.022-0.014-0.034-0.024c-0.006-0.002-0.006-0.005-0.012-0.008
	c-0.005-0.003-0.011-0.008-0.017-0.014c-0.006-0.005-0.017-0.011-0.022-0.014c0-0.002-0.006-0.008-0.012-0.013
	c-0.005-0.005-0.017-0.014-0.022-0.02c-0.005-0.003-0.011-0.006-0.017-0.008c-0.006-0.006-0.017-0.012-0.022-0.02l-0.006-0.003
	c-0.011-0.008-0.022-0.018-0.028-0.024l-0.006-0.003c-0.011-0.011-0.022-0.02-0.033-0.028l0,0c-0.107-0.085-0.215-0.166-0.322-0.249
	C111.544,15.96,111.233,15.862,110.923,15.862 M101.412,9.761c-0.525,0-1.033,0.284-1.293,0.777
	c-0.372,0.711-0.102,1.593,0.61,1.968c0.818,0.431,1.619,0.878,2.415,1.343c0.231,0.133,0.485,0.198,0.734,0.198
	c0.502,0,0.987-0.258,1.264-0.723c0.401-0.694,0.17-1.587-0.53-1.992c-0.011-0.008-0.022-0.014-0.034-0.02
	c0,0-0.005-0.003-0.005-0.006c-0.012-0.006-0.022-0.011-0.034-0.017c0-0.003,0-0.003-0.006-0.005
	c-0.011-0.006-0.022-0.013-0.033-0.021c-0.006,0,0,0-0.006,0c-0.012-0.005-0.022-0.014-0.034-0.02c0-0.003,0,0,0-0.003
	c-0.012-0.005-0.022-0.011-0.034-0.02c-0.005,0-0.005,0-0.005-0.004c-0.012-0.006-0.028-0.011-0.04-0.02c0,0,0,0,0-0.003
	c-0.039-0.02-0.079-0.044-0.118-0.066c-0.012-0.006-0.022-0.014-0.04-0.02c-0.039-0.024-0.079-0.046-0.112-0.069h-0.006
	c-0.012-0.007-0.022-0.016-0.034-0.021v-0.003c-0.045-0.02-0.079-0.044-0.118-0.063v-0.003c-0.012-0.006-0.028-0.014-0.04-0.02
	h-0.005c-0.034-0.024-0.074-0.046-0.113-0.066c-0.017-0.01-0.028-0.016-0.039-0.024l0,0c-0.04-0.022-0.079-0.042-0.119-0.066l0,0
	c-0.011-0.009-0.022-0.014-0.039-0.02c0-0.003,0-0.003,0-0.003c-0.04-0.021-0.079-0.043-0.113-0.063c-0.006,0-0.006,0-0.006-0.002
	c-0.011-0.006-0.022-0.013-0.039-0.021c0,0,0,0-0.006-0.003c-0.011-0.005-0.022-0.011-0.034-0.02l0,0
	c-0.011-0.006-0.027-0.014-0.039-0.02c-0.012-0.01-0.022-0.016-0.034-0.021c0-0.003-0.005-0.003-0.005-0.003
	c-0.012-0.005-0.023-0.014-0.034-0.02c-0.006,0-0.006-0.003-0.012-0.003c-0.011-0.005-0.022-0.014-0.033-0.021c0,0,0,0,0-0.003
	c-0.012-0.006-0.022-0.011-0.034-0.017c-0.006,0,0,0-0.006-0.002c-0.011-0.006-0.022-0.012-0.034-0.017
	c-0.005-0.003-0.005-0.003-0.005-0.006c-0.012-0.005-0.022-0.013-0.034-0.018c-0.006,0-0.006-0.003-0.012-0.003
	c-0.005-0.008-0.017-0.014-0.027-0.02c-0.006,0-0.012-0.003-0.012-0.003c-0.012-0.006-0.017-0.011-0.028-0.017
	c-0.006,0-0.006-0.003-0.006-0.003c-0.011-0.005-0.022-0.013-0.033-0.018c0-0.003-0.006-0.003-0.006-0.006
	c-0.012-0.005-0.022-0.011-0.034-0.017c-0.006-0.003-0.006-0.003-0.011-0.006c-0.012-0.006-0.022-0.011-0.034-0.017
	c0,0,0,0-0.006-0.004c-0.011-0.006-0.017-0.011-0.028-0.017l-0.006-0.003c-0.011-0.005-0.022-0.011-0.033-0.017
	c0,0-0.006-0.002-0.006-0.005c-0.017-0.006-0.028-0.011-0.034-0.017c-0.005,0-0.005-0.003-0.011-0.007
	c-0.012-0.006-0.022-0.009-0.028-0.014c-0.006-0.003-0.012-0.006-0.012-0.006c-0.011-0.005-0.017-0.011-0.028-0.014
	c0-0.002-0.005-0.005-0.011-0.005c-0.012-0.006-0.017-0.011-0.028-0.019c-0.006,0-0.006-0.002-0.012-0.005
	c-0.011-0.006-0.017-0.009-0.027-0.014c-0.006-0.003-0.012-0.006-0.012-0.009c-0.012-0.002-0.022-0.008-0.028-0.014
	c-0.006-0.003-0.011-0.006-0.011-0.006c-0.012-0.006-0.023-0.008-0.028-0.016c-0.006-0.003-0.012-0.003-0.018-0.005
	c-0.006-0.006-0.017-0.011-0.022-0.014s-0.006-0.006-0.011-0.006l-0.028-0.017c-0.006-0.003-0.012-0.006-0.012-0.006
	c-0.017-0.007-0.022-0.013-0.034-0.019c-0.005,0-0.005-0.002-0.011-0.005s-0.017-0.008-0.022-0.011s-0.012-0.006-0.018-0.009
	l-0.022-0.014c-0.005-0.003-0.005-0.003-0.011-0.006c-0.012-0.007-0.022-0.013-0.034-0.016c0-0.003-0.006-0.005-0.011-0.008
	c-0.012-0.006-0.018-0.008-0.028-0.014c-0.006-0.003-0.006-0.006-0.012-0.006c-0.006-0.005-0.017-0.008-0.022-0.014
	c-0.006-0.004-0.012-0.007-0.017-0.01c-0.012-0.003-0.018-0.008-0.028-0.011c-0.006-0.003-0.006-0.003-0.012-0.005
	c-0.011-0.006-0.017-0.012-0.028-0.017c-0.006,0-0.006-0.003-0.011-0.006c-0.012-0.005-0.018-0.011-0.028-0.014
	c-0.006-0.002-0.012-0.007-0.012-0.01c-0.011-0.003-0.022-0.008-0.028-0.011c0-0.003-0.005-0.003-0.005-0.005
	C101.869,9.816,101.638,9.761,101.412,9.761 M91.004,5.357c-0.615,0-1.186,0.391-1.383,1.006c-0.248,0.766,0.169,1.586,0.932,1.834
	c0.88,0.289,1.749,0.592,2.613,0.917c0.169,0.061,0.339,0.092,0.508,0.092c0.587,0,1.146-0.361,1.366-0.948
	c0.282-0.753-0.102-1.592-0.853-1.875c-0.006,0-0.006,0-0.012-0.003c-0.011-0.002-0.017-0.005-0.028-0.008
	c-0.005-0.003-0.005-0.003-0.011-0.005c-0.012-0.003-0.017-0.006-0.028-0.009c-0.006-0.003-0.012-0.005-0.017-0.005
	c-0.006-0.006-0.018-0.009-0.028-0.011c-0.006-0.004-0.012-0.007-0.018-0.007c-0.005-0.003-0.011-0.005-0.017-0.008
	c-0.012-0.003-0.017-0.006-0.028-0.009c-0.006-0.002-0.011-0.002-0.017-0.005S93.967,6.303,93.956,6.3
	c-0.006-0.003-0.012-0.003-0.012-0.006c-0.011-0.003-0.017-0.005-0.028-0.008c0,0-0.005,0-0.005-0.004
	c-0.012-0.003-0.022-0.008-0.04-0.011c0-0.003-0.006-0.003-0.006-0.005c-0.011-0.003-0.027-0.009-0.039-0.014H93.82
	c-0.028-0.011-0.045-0.017-0.073-0.025c0-0.003,0-0.003-0.006-0.003c-0.011-0.007-0.022-0.013-0.039-0.016
	c0-0.003-0.006-0.003-0.006-0.003c-0.017-0.005-0.028-0.008-0.045-0.017c0,0,0,0-0.006,0c-0.022-0.009-0.045-0.017-0.067-0.027l0,0
	c-0.022-0.006-0.034-0.011-0.051-0.017l0,0c-0.04-0.017-0.079-0.028-0.119-0.042l-0.011-0.004c-0.012-0.006-0.022-0.012-0.034-0.014
	c-0.006,0-0.006-0.003-0.012-0.003c-0.011-0.006-0.027-0.011-0.045-0.014c0-0.003,0-0.003,0-0.003
	c-0.011-0.003-0.017-0.005-0.022-0.008c-0.006,0-0.006-0.003-0.011-0.003c-0.012-0.003-0.023-0.01-0.034-0.013
	c-0.006-0.003-0.012-0.003-0.012-0.005c-0.011-0.003-0.028-0.009-0.033-0.012c-0.006,0-0.012-0.002-0.018-0.002
	c-0.005-0.003-0.011-0.006-0.017-0.009c-0.012-0.002-0.017-0.005-0.028-0.008c-0.006-0.003-0.011-0.006-0.017-0.008
	c-0.006,0-0.012-0.003-0.018-0.006c-0.011-0.003-0.022-0.005-0.027-0.008l-0.018-0.007c-0.011-0.002-0.011-0.005-0.022-0.008
	c-0.006-0.003-0.017-0.006-0.022-0.008c-0.006,0-0.012-0.003-0.017-0.006c-0.012-0.003-0.023-0.005-0.034-0.008
	c-0.006-0.003-0.006-0.006-0.012-0.006c-0.011-0.003-0.017-0.005-0.028-0.008c0-0.003-0.011-0.007-0.011-0.007
	c-0.012-0.002-0.017-0.005-0.028-0.008c-0.006-0.003-0.006-0.003-0.012-0.006c-0.011-0.002-0.022-0.008-0.033-0.011
	c-0.006,0-0.012-0.002-0.012-0.002c-0.011-0.006-0.022-0.009-0.033-0.012c-0.006-0.002-0.006-0.002-0.012-0.002
	c-0.012-0.006-0.017-0.009-0.028-0.011c-0.006-0.003-0.006-0.003-0.006-0.003c-0.011-0.007-0.028-0.01-0.039-0.016
	c-0.006,0-0.006,0-0.006,0c-0.017-0.006-0.028-0.008-0.039-0.014c0,0-0.006,0-0.006-0.003c-0.04-0.014-0.085-0.025-0.124-0.041
	V5.788c-0.012-0.003-0.028-0.009-0.04-0.014c-0.305-0.102-0.598-0.202-0.903-0.301l0,0c-0.017-0.005-0.027-0.008-0.039-0.014H91.54
	c-0.028-0.008-0.057-0.017-0.079-0.027c0-0.002-0.006-0.002-0.006-0.002C91.309,5.381,91.15,5.357,91.004,5.357 M80.003,2.782
	c-0.711,0-1.332,0.523-1.438,1.249c-0.119,0.794,0.435,1.535,1.23,1.649c0.914,0.134,1.822,0.287,2.726,0.457
	c0.096,0.017,0.187,0.027,0.276,0.027c0.684,0,1.299-0.487,1.429-1.185c0.146-0.789-0.367-1.549-1.157-1.702
	c-0.739-0.14-1.49-0.27-2.235-0.385c0,0,0,0-0.006,0c-0.006-0.003-0.011-0.003-0.022-0.006c0,0,0,0-0.006,0
	c-0.022-0.003-0.045-0.008-0.073-0.011H80.72c-0.005-0.003-0.011-0.003-0.017-0.003s-0.006,0-0.006-0.003
	c-0.006,0-0.017,0-0.022-0.002c-0.006,0-0.006,0-0.011,0l-0.012-0.003c-0.006,0-0.006,0-0.012,0
	c-0.005-0.003-0.011-0.003-0.017-0.003s-0.006-0.003-0.006-0.003c-0.011,0-0.017,0-0.022-0.002c-0.006,0-0.006,0-0.011,0
	c-0.006-0.003-0.012-0.003-0.012-0.003c-0.006,0-0.011-0.003-0.017-0.003s-0.006,0-0.012,0c-0.006-0.004-0.011-0.004-0.011-0.004
	c-0.006,0-0.006,0-0.012-0.002c-0.006,0-0.011,0-0.017,0c0-0.003,0-0.003-0.006-0.003c-0.017-0.003-0.039-0.006-0.063-0.009l0,0
	c-0.005,0-0.017-0.002-0.022-0.002l0,0c-0.005,0-0.011-0.003-0.022-0.003l0,0c-0.057-0.008-0.118-0.017-0.175-0.025
	C80.145,2.788,80.071,2.782,80.003,2.782 M70.274,2.081h-0.025h-0.006h-0.02h-0.008c-0.009,0-0.014,0-0.02,0h-0.008h-0.02h-0.005
	c-0.008,0-0.017,0-0.025,0h-0.022h-0.009c-0.005,0-0.011,0-0.022,0h-0.006c-0.005,0-0.011,0-0.02,0h-0.006c-0.02,0-0.034,0-0.051,0
	h-0.005c-0.008,0-0.011,0-0.02,0h-0.005c-0.011,0-0.014,0-0.025,0h-0.003c-0.028,0-0.054,0-0.079,0c-0.011,0-0.02,0-0.028,0h-0.002
	c-0.514,0.006-1.027,0.014-1.538,0.028c-0.028,0-0.054,0-0.082,0.003h-0.003c-0.005,0-0.017,0-0.02,0s-0.006,0-0.009,0
	c-0.005,0-0.011,0-0.017,0c-0.006,0-0.009,0-0.011,0c-0.009,0-0.009,0-0.017,0h-0.008c-0.009,0.002-0.014,0.002-0.023,0.002
	c-0.005,0-0.011,0-0.02,0c0,0,0,0-0.003,0c-0.005,0-0.014,0-0.02,0h-0.003c-0.226,0.009-0.449,0.019-0.674,0.027
	c-0.805,0.031-1.428,0.711-1.397,1.514c0.037,0.783,0.68,1.396,1.459,1.396c0.02,0,0.04,0,0.059,0
	c0.92-0.038,1.84-0.058,2.769-0.058c0.42,0,0.835,0.003,1.25,0.011c0.011,0,0.02,0,0.031,0c0.787,0,1.438-0.632,1.453-1.427
	c0.014-0.804-0.621-1.466-1.423-1.486c-0.076,0-0.155-0.003-0.231-0.003c-0.003,0-0.005,0-0.008,0c-0.006,0-0.015,0-0.021,0
	c-0.008,0-0.014,0-0.022,0c-0.003,0-0.008,0-0.014,0c-0.012,0-0.022-0.002-0.034-0.002c-0.003,0-0.003,0-0.006,0
	c-0.256-0.003-0.513-0.006-0.767-0.006c-0.003,0-0.003,0-0.006,0c-0.011,0-0.025,0-0.04,0s-0.025,0-0.037,0h-0.008h-0.034h-0.005
	c-0.008,0-0.02,0-0.034,0h-0.012H70.274z"/>
<polygon fill="#EC1C27" points="112.052,112.428 112.052,97.84 97.461,112.428 "/>
<polygon fill="#EC1C27" points="28.286,28.073 42.876,28.073 28.286,43.383 "/>
<polygon fill="#EC1C27" points="113.124,28.073 98.539,28.073 113.124,42.66 "/>
<polygon fill="#EC1C27" points="28.286,112.428 28.286,97.84 42.874,112.428 "/>
<path fill="#EA202A" d="M69.314,48.231c12.196,0,22.118,9.921,22.118,22.116c0,12.197-9.922,22.12-22.118,22.12
	c-12.194,0-22.114-9.923-22.114-22.12C47.2,58.152,57.12,48.231,69.314,48.231 M69.314,36.58c-18.651,0-33.767,15.12-33.767,33.767
	c0,18.651,15.116,33.772,33.767,33.772c18.653,0,33.769-15.121,33.769-33.772C103.083,51.7,87.968,36.58,69.314,36.58"/>
</svg>
