<?xml version="1.0" encoding="utf-8"?>
<!-- Generator: Adobe Illustrator 14.0.0, SVG Export Plug-In . SVG Version: 6.00 Build 43363)  -->
<!DOCTYPE svg PUBLIC "-//W3C//DTD SVG 1.1//EN" "http://www.w3.org/Graphics/SVG/1.1/DTD/svg11.dtd">
<svg version="1.1" id="Layer_1" xmlns="http://www.w3.org/2000/svg" xmlns:xlink="http://www.w3.org/1999/xlink" x="0px" y="0px"
	 width="140px" height="140px" viewBox="0 0 140 140" enable-background="new 0 0 140 140" xml:space="preserve">
<line fill="#963020" stroke="#963020" stroke-width="4.3631" stroke-miterlimit="10" x1="70.245" y1="138" x2="70.245" y2="118.696"/>
<line fill="#963020" stroke="#963020" stroke-width="17.4525" stroke-miterlimit="10" x1="70.245" y1="1.925" x2="70.245" y2="21.233"/>
<line fill="#963020" stroke="#963020" stroke-width="12.3622" stroke-miterlimit="10" x1="36.235" y1="11.046" x2="45.9" y2="27.794"/>
<line fill="#963020" stroke="#963020" stroke-width="4.3631" stroke-miterlimit="10" x1="104.261" y1="128.879" x2="94.595" y2="112.131"/>
<line fill="#963020" stroke="#963020" stroke-width="10.9078" stroke-miterlimit="10" x1="11.333" y1="35.949" x2="28.08" y2="45.614"/>
<line fill="#963020" stroke="#963020" stroke-width="4.3631" stroke-miterlimit="10" x1="129.163" y1="103.977" x2="112.419" y2="94.311"/>
<line fill="#963020" stroke="#963020" stroke-width="9.4534" stroke-miterlimit="10" x1="2.211" y1="69.965" x2="21.519" y2="69.965"/>
<line fill="#963020" stroke="#963020" stroke-width="4.3631" stroke-miterlimit="10" x1="138.284" y1="69.965" x2="118.977" y2="69.965"/>
<line fill="#963020" stroke="#963020" stroke-width="7.999" stroke-miterlimit="10" x1="11.333" y1="103.977" x2="28.08" y2="94.311"/>
<line fill="#963020" stroke="#963020" stroke-width="4.3631" stroke-miterlimit="10" x1="129.163" y1="35.949" x2="112.419" y2="45.614"/>
<line fill="#963020" stroke="#963020" stroke-width="4.3631" stroke-miterlimit="10" x1="104.261" y1="11.046" x2="94.595" y2="27.794"/>
<line fill="#963020" stroke="#963020" stroke-width="5.8175" stroke-miterlimit="10" x1="36.235" y1="128.879" x2="45.9" y2="112.131"/>
<line fill="#963020" stroke="#963020" stroke-width="4.3631" stroke-miterlimit="10" x1="87.856" y1="135.688" x2="82.854" y2="116.991"/>
<line fill="#963020" stroke="#963020" stroke-width="13.0894" stroke-miterlimit="10" x1="52.639" y1="4.241" x2="57.646" y2="22.937"/>
<line fill="#963020" stroke="#963020" stroke-width="4.3631" stroke-miterlimit="10" x1="118.36" y1="118.072" x2="104.71" y2="104.422"/>
<line fill="#963020" stroke="#963020" stroke-width="11.635" stroke-miterlimit="10" x1="22.138" y1="21.852" x2="35.789" y2="35.503"/>
<line fill="#963020" stroke="#963020" stroke-width="4.3631" stroke-miterlimit="10" x1="135.973" y1="87.572" x2="117.271" y2="82.565"/>
<line fill="#963020" stroke="#963020" stroke-width="10.1806" stroke-miterlimit="10" x1="4.527" y1="52.353" x2="23.223" y2="57.363"/>
<line fill="#963020" stroke="#963020" stroke-width="8.7262" stroke-miterlimit="10" x1="4.527" y1="87.572" x2="23.223" y2="82.565"/>
<line fill="#963020" stroke="#963020" stroke-width="4.3631" stroke-miterlimit="10" x1="135.973" y1="52.353" x2="117.271" y2="57.363"/>
<line fill="#963020" stroke="#963020" stroke-width="4.3631" stroke-miterlimit="10" x1="118.36" y1="21.852" x2="104.71" y2="35.503"/>
<line fill="#963020" stroke="#963020" stroke-width="7.2719" stroke-miterlimit="10" x1="22.138" y1="118.072" x2="35.789" y2="104.422"/>
<line fill="#963020" stroke="#963020" stroke-width="4.3631" stroke-miterlimit="10" x1="87.856" y1="4.241" x2="82.854" y2="22.937"/>
<line fill="#963020" stroke="#963020" stroke-width="5.0903" stroke-miterlimit="10" x1="57.649" y1="116.987" x2="52.639" y2="135.685"/>
</svg>
