<?xml version="1.0" encoding="utf-8"?>
<!-- Generator: Adobe Illustrator 18.0.0, SVG Export Plug-In . SVG Version: 6.00 Build 0)  -->
<!DOCTYPE svg PUBLIC "-//W3C//DTD SVG 1.1//EN" "http://www.w3.org/Graphics/SVG/1.1/DTD/svg11.dtd">
<svg version="1.1" id="Layer_1" xmlns="http://www.w3.org/2000/svg" xmlns:xlink="http://www.w3.org/1999/xlink" x="0px" y="0px"
	 viewBox="0 0 719.7 100" enable-background="new 0 0 719.7 100" xml:space="preserve">
<g>
	<g>
		<g>
			<polygon fill="#ED1E27" points="98.9,43.1 63.9,74.5 74.3,99.1 			"/>
			<polygon fill="#ED1E27" points="98.9,43.1 47.9,40.2 58.2,63.9 			"/>
			<polygon fill="#ED1E27" points="98.9,43.1 30.5,0.2 42.9,28.4 			"/>
			<polygon fill="#8C191C" points="0.2,82.7 63.9,74.5 74.3,99.1 22.1,99.1 			"/>
			<polygon fill="#8C191C" points="11,45.9 47.9,40.2 58.2,63.9 0,71.8 			"/>
			<polygon fill="#8C191C" points="16.1,33.4 30.5,0.2 42.9,28.4 			"/>
		</g>
	</g>
	<g>
		<g>
			<path fill="#FFFFFF" stroke="#FFFFFF" stroke-width="0.1" stroke-miterlimit="10" d="M153.6,27h0.7l30.6,72.4h-2.3l-9-21.7h-39.4
				l-9.1,21.7h-2.3L153.6,27z M135,75.7h37.8l-18.8-45L135,75.7z"/>
			<path fill="#FFFFFF" stroke="#FFFFFF" stroke-width="0.1" stroke-miterlimit="10" d="M269.4,37.8c-4.9-5.3-12.3-9.1-23.7-9.1
				c-28.7,0-32.8,25.6-32.8,34.6s4.1,34.9,32.8,34.9c11.1,0,18.5-3.5,23.4-8.7V68.8h-18.6v-2h20.7v23.3c-5.6,5.9-13.5,10-25.6,10
				c-27.1,0-35.1-21.4-35.1-36.9c0-14.7,8-36.6,35.1-36.6c11.6,0,19.7,4,25.1,9.8L269.4,37.8z"/>
			<path fill="#FFFFFF" stroke="#FFFFFF" stroke-width="0.1" stroke-miterlimit="10" d="M310.5,99.2h-2.4V27.5h2.4V99.2z"/>
			<path fill="#FFFFFF" stroke="#FFFFFF" stroke-width="0.1" stroke-miterlimit="10" d="M353.9,97.1h33.4v2.3h-35.7V27.5h2.4V97.1z"
				/>
			<path fill="#FFFFFF" stroke="#FFFFFF" stroke-width="0.1" stroke-miterlimit="10" d="M424.3,99.4V27.5h24.1
				c27.4,0,34.6,22.4,34.6,35.8c0,13.5-7.2,36-34.6,36H424.3z M447.9,97.2c27.5,0,32.7-23,32.7-33.9c0-10.3-5.2-33.7-32.7-33.7
				h-21.2v67.5H447.9z"/>
			<path fill="#FFFFFF" stroke="#FFFFFF" stroke-width="0.1" stroke-miterlimit="10" d="M539.4,27h0.7l30.6,72.4h-2.3l-9-21.7H520
				l-9.1,21.7h-2.3L539.4,27z M520.8,75.7h37.8l-18.8-45L520.8,75.7z"/>
			<path fill="#FFFFFF" stroke="#FFFFFF" stroke-width="0.1" stroke-miterlimit="10" d="M615.4,99.4H613V29.7h-24.3v-2.2h50.9v2.2
				h-24.2V99.4z"/>
			<path fill="#FFFFFF" stroke="#FFFFFF" stroke-width="0.1" stroke-miterlimit="10" d="M688.3,27h0.7l30.6,72.4h-2.3l-9-21.7h-39.4
				l-9.1,21.7h-2.3L688.3,27z M669.8,75.7h37.8l-18.8-45L669.8,75.7z"/>
		</g>
	</g>
</g>
</svg>
